<mxfile host="app.diagrams.net" modified="2024-02-07T11:34:44.429Z" agent="Mozilla/5.0 (Macintosh; Intel Mac OS X 10.15; rv:122.0) Gecko/20100101 Firefox/122.0" etag="X9wA4SQt_1MTsOO65qBN" version="23.1.1" type="github">
  <diagram name="Page-1" id="b5b7bab2-c9e2-2cf4-8b2a-24fd1a2a6d21">
    <mxGraphModel dx="954" dy="642" grid="1" gridSize="10" guides="1" tooltips="1" connect="1" arrows="1" fold="1" page="1" pageScale="1" pageWidth="827" pageHeight="1169" background="none" math="0" shadow="0">
      <root>
        <mxCell id="0" />
        <mxCell id="1" parent="0" />
        <mxCell id="6e0c8c40b5770093-51" value="" style="triangle;whiteSpace=wrap;html=1;rounded=0;shadow=0;comic=0;labelBackgroundColor=none;strokeColor=#000000;strokeWidth=1;fillColor=#ffffff;fontFamily=Verdana;fontSize=10;fontColor=#000000;align=center;rotation=-90;" parent="1" vertex="1">
          <mxGeometry x="538.5" y="476.5" width="15" height="20" as="geometry" />
        </mxCell>
        <mxCell id="6e0c8c40b5770093-73" value="&amp;lt;&amp;lt;model&amp;gt;&amp;gt;" style="text;html=1;align=left;verticalAlign=top;spacingTop=-4;fontSize=10;fontFamily=Verdana" parent="1" vertex="1">
          <mxGeometry x="327.5" y="114.5" width="130" height="20" as="geometry" />
        </mxCell>
        <mxCell id="6e0c8c40b5770093-72" value="" style="shape=folder;fontStyle=1;spacingTop=10;tabWidth=194;tabHeight=22;tabPosition=left;html=1;rounded=0;shadow=0;comic=0;labelBackgroundColor=none;strokeWidth=1;fillColor=none;fontFamily=Verdana;fontSize=10;align=center;" parent="1" vertex="1">
          <mxGeometry x="890" y="420" width="641" height="940" as="geometry" />
        </mxCell>
        <mxCell id="qXES0kQHbYOZL8v_Z2TT-4" value="" style="group" vertex="1" connectable="0" parent="1">
          <mxGeometry x="1170" y="460" width="340" height="870" as="geometry" />
        </mxCell>
        <mxCell id="6e0c8c40b5770093-25" value="" style="shape=folder;fontStyle=1;spacingTop=10;tabWidth=123;tabHeight=24;tabPosition=left;html=1;rounded=0;shadow=0;comic=0;labelBackgroundColor=none;strokeWidth=1;fontFamily=Verdana;fontSize=10;align=center;" parent="qXES0kQHbYOZL8v_Z2TT-4" vertex="1">
          <mxGeometry x="-110" width="440" height="870" as="geometry" />
        </mxCell>
        <mxCell id="6e0c8c40b5770093-27" value="&lt;div&gt;Read/Update&lt;/div&gt;&lt;div&gt;Guest&lt;br&gt;&lt;/div&gt;" style="shape=folder;fontStyle=1;spacingTop=10;tabWidth=50;tabHeight=17;tabPosition=left;html=1;rounded=0;shadow=0;comic=0;labelBackgroundColor=none;strokeWidth=1;fontFamily=Verdana;fontSize=10;align=center;" parent="qXES0kQHbYOZL8v_Z2TT-4" vertex="1">
          <mxGeometry y="109.99997275394722" width="112" height="118.74301383261142" as="geometry" />
        </mxCell>
        <mxCell id="6e0c8c40b5770093-31" value="&lt;div&gt;Read/Update&lt;/div&gt;&lt;div&gt;Rooms&lt;br&gt;&lt;/div&gt;" style="shape=folder;fontStyle=1;spacingTop=10;tabWidth=50;tabHeight=17;tabPosition=left;html=1;rounded=0;shadow=0;comic=0;labelBackgroundColor=none;strokeWidth=1;fontFamily=Verdana;fontSize=10;align=center;" parent="qXES0kQHbYOZL8v_Z2TT-4" vertex="1">
          <mxGeometry y="299.99739765264775" width="112" height="118.74301383261142" as="geometry" />
        </mxCell>
        <mxCell id="6e0c8c40b5770093-28" value="&lt;div&gt;Create&lt;/div&gt;&lt;div&gt;Reservations&lt;br&gt;&lt;/div&gt;" style="shape=folder;fontStyle=1;spacingTop=10;tabWidth=50;tabHeight=17;tabPosition=left;html=1;rounded=0;shadow=0;comic=0;labelBackgroundColor=none;strokeWidth=1;fontFamily=Verdana;fontSize=10;align=center;" parent="qXES0kQHbYOZL8v_Z2TT-4" vertex="1">
          <mxGeometry y="479.0417814726842" width="112" height="118.74301383261142" as="geometry" />
        </mxCell>
        <mxCell id="qXES0kQHbYOZL8v_Z2TT-1" value="&lt;div&gt;Drop&lt;/div&gt;&lt;div&gt;Reservations&lt;br&gt;&lt;/div&gt;" style="shape=folder;fontStyle=1;spacingTop=10;tabWidth=50;tabHeight=17;tabPosition=left;html=1;rounded=0;shadow=0;comic=0;labelBackgroundColor=none;strokeWidth=1;fontFamily=Verdana;fontSize=10;align=center;" vertex="1" parent="qXES0kQHbYOZL8v_Z2TT-4">
          <mxGeometry y="689.9969861673885" width="112" height="118.74301383261142" as="geometry" />
        </mxCell>
        <mxCell id="qXES0kQHbYOZL8v_Z2TT-11" style="edgeStyle=orthogonalEdgeStyle;rounded=0;orthogonalLoop=1;jettySize=auto;html=1;" edge="1" parent="qXES0kQHbYOZL8v_Z2TT-4" source="qXES0kQHbYOZL8v_Z2TT-5" target="qXES0kQHbYOZL8v_Z2TT-1">
          <mxGeometry relative="1" as="geometry" />
        </mxCell>
        <mxCell id="qXES0kQHbYOZL8v_Z2TT-5" value="&lt;div&gt;Update&lt;/div&gt;&lt;div&gt;Payment&lt;br&gt;&lt;/div&gt;" style="shape=folder;fontStyle=1;spacingTop=10;tabWidth=50;tabHeight=17;tabPosition=left;html=1;rounded=0;shadow=0;comic=0;labelBackgroundColor=none;strokeWidth=1;fontFamily=Verdana;fontSize=10;align=center;" vertex="1" parent="qXES0kQHbYOZL8v_Z2TT-4">
          <mxGeometry x="200" y="579.9969861673885" width="112" height="118.74301383261142" as="geometry" />
        </mxCell>
        <mxCell id="qXES0kQHbYOZL8v_Z2TT-12" style="edgeStyle=orthogonalEdgeStyle;rounded=0;orthogonalLoop=1;jettySize=auto;html=1;entryX=0;entryY=0;entryDx=112;entryDy=42.43575345815286;entryPerimeter=0;" edge="1" parent="qXES0kQHbYOZL8v_Z2TT-4" source="qXES0kQHbYOZL8v_Z2TT-5" target="6e0c8c40b5770093-28">
          <mxGeometry relative="1" as="geometry" />
        </mxCell>
      </root>
    </mxGraphModel>
  </diagram>
</mxfile>
